<svg xmlns="http://www.w3.org/2000/svg" width="60" height="60" viewBox="0 0 60 60" fill="none"><path opacity="0.4" d="M42.2996 54.9999C39.7878 54.9999 37.3324 54.255 35.2439 52.8595C33.1554 51.464 31.5276 49.4806 30.5663 47.1599C29.6051 44.8393 29.3536 42.2858 29.8436 39.8222C30.3337 37.3587 31.5432 35.0957 33.3194 33.3196C35.0955 31.5435 37.3584 30.3339 39.822 29.8439C42.2855 29.3539 44.8391 29.6054 47.1597 30.5666C49.4803 31.5278 51.4638 33.1556 52.8593 35.2441C54.2548 37.3326 54.9996 39.788 54.9996 42.2999C54.999 45.6679 53.6607 48.8978 51.2791 51.2794C48.8976 53.6609 45.6677 54.9992 42.2996 54.9999Z" fill="#EB1C79"></path><path opacity="0.4" d="M12.55 5H22.35C27.525 5 30.025 7.5 29.9 12.55V22.35C30.025 27.525 27.525 30.025 22.35 29.9H12.55C7.5 30 5 27.5 5 22.325V12.525C5 7.5 7.5 5 12.55 5Z" fill="#EB1C79"></path><path d="M22.5242 20.6501C21.7315 20.6271 20.9679 20.3463 20.3492 19.8501C20.9905 18.8256 21.4316 17.6889 21.6492 16.5001H22.4992C22.9965 16.5001 23.4734 16.3025 23.825 15.9509C24.1767 15.5993 24.3742 15.1224 24.3742 14.6251C24.3742 14.1278 24.1767 13.6509 23.825 13.2992C23.4734 12.9476 22.9965 12.7501 22.4992 12.7501H19.2742C19.2326 12.2882 19.0197 11.8586 18.6773 11.5457C18.335 11.2328 17.888 11.0593 17.4242 11.0593C16.9604 11.0593 16.5134 11.2328 16.1711 11.5457C15.8288 11.8586 15.6159 12.2882 15.5742 12.7501H12.3492C11.8519 12.7501 11.375 12.9476 11.0234 13.2992C10.6718 13.6509 10.4742 14.1278 10.4742 14.6251C10.4742 15.1224 10.6718 15.5993 11.0234 15.9509C11.375 16.3025 11.8519 16.5001 12.3492 16.5001H17.7742C17.4272 17.6826 16.7111 18.7233 15.7306 19.4699C14.7501 20.2165 13.5565 20.6301 12.3242 20.6501C11.8269 20.6501 11.35 20.8476 10.9984 21.1992C10.6468 21.5509 10.4492 22.0278 10.4492 22.5251C10.4492 23.0224 10.6468 23.4993 10.9984 23.8509C11.35 24.2025 11.8269 24.4001 12.3242 24.4001C14.2858 24.3931 16.1944 23.7628 17.7742 22.6001C19.0881 23.7377 20.7614 24.3752 22.4992 24.4001C22.9955 24.3968 23.4705 24.1982 23.8214 23.8473C24.1723 23.4964 24.3709 23.0213 24.3742 22.5251C24.3762 22.0315 24.1827 21.5572 23.8361 21.2059C23.4894 20.8545 23.0178 20.6547 22.5242 20.6501Z" fill="#EB1C79"></path><path d="M22.5 56.875C17.3641 56.8664 12.441 54.8224 8.8093 51.1907C5.17764 47.559 3.13359 42.6359 3.125 37.5C3.12828 37.0037 3.32687 36.5287 3.67779 36.1778C4.02872 35.8269 4.50373 35.6283 5 35.625C5.49627 35.6283 5.97128 35.8269 6.32221 36.1778C6.67313 36.5287 6.87172 37.0037 6.875 37.5C6.87797 41.0271 8.0721 44.4497 10.2638 47.2132C12.4555 49.9766 15.5163 51.9189 18.95 52.725L18.275 51.6C18.1486 51.3882 18.0652 51.1537 18.0294 50.9097C17.9937 50.6656 18.0063 50.417 18.0667 50.1779C18.1271 49.9388 18.2339 49.7139 18.3812 49.5161C18.5285 49.3183 18.7132 49.1514 18.925 49.025C19.1368 48.8986 19.3713 48.8152 19.6153 48.7794C19.8594 48.7437 20.108 48.7563 20.3471 48.8167C20.5862 48.8771 20.8111 48.9839 21.0089 49.1312C21.2067 49.2785 21.3736 49.4632 21.5 49.675L24.125 54.05C24.2946 54.3324 24.3863 54.6547 24.3907 54.9841C24.3951 55.3135 24.312 55.6382 24.15 55.925C23.9789 56.211 23.7375 56.4485 23.4486 56.6147C23.1598 56.781 22.8332 56.8706 22.5 56.875Z" fill="#EB1C79"></path><path d="M55.001 24.375C54.5047 24.3718 54.0297 24.1732 53.6788 23.8222C53.3278 23.4713 53.1292 22.9963 53.126 22.5C53.123 18.973 51.9289 15.5503 49.7372 12.7868C47.5455 10.0234 44.4847 8.08117 41.051 7.27503L41.726 8.40003C41.8524 8.61179 41.9358 8.84637 41.9715 9.09037C42.0073 9.33438 41.9946 9.58304 41.9343 9.82215C41.8739 10.0613 41.767 10.2861 41.6198 10.484C41.4725 10.6818 41.2877 10.8486 41.076 10.975C40.8642 11.1014 40.6296 11.1849 40.3856 11.2206C40.1416 11.2564 39.8929 11.2437 39.6538 11.1833C39.4147 11.123 39.1898 11.0161 38.992 10.8688C38.7942 10.7216 38.6274 10.5368 38.501 10.325L35.876 5.95003C35.7079 5.66674 35.6179 5.34394 35.6153 5.01456C35.6127 4.68517 35.6974 4.36097 35.861 4.07503C36.0196 3.78584 36.2534 3.54489 36.5377 3.37766C36.8219 3.21043 37.1461 3.12314 37.476 3.12503C42.6136 3.13098 47.5393 5.17386 51.1731 8.8058C54.8069 12.4377 56.8524 17.3624 56.861 22.5C56.8639 22.7458 56.818 22.9898 56.7258 23.2176C56.6335 23.4455 56.4969 23.6527 56.3238 23.8272C56.1506 24.0017 55.9445 24.14 55.7174 24.2341C55.4903 24.3281 55.2468 24.376 55.001 24.375Z" fill="#EB1C79"></path><path d="M49.3192 45.8251L43.9742 35.1501C43.816 34.84 43.5767 34.5786 43.2817 34.3937C42.9868 34.2088 42.6472 34.1073 42.2992 34.1001C41.9531 34.1022 41.6142 34.1988 41.319 34.3794C41.0238 34.5601 40.7835 34.8179 40.6242 35.1251L35.2742 45.8001C35.1613 46.0211 35.0937 46.2625 35.0754 46.5101C35.0571 46.7576 35.0885 47.0063 35.1676 47.2415C35.2468 47.4768 35.3722 47.6938 35.5365 47.8799C35.7008 48.066 35.9006 48.2173 36.1242 48.3251C36.3817 48.45 36.663 48.5182 36.9492 48.5251C37.2956 48.5249 37.6354 48.4292 37.9309 48.2483C38.2264 48.0675 38.4663 47.8085 38.6242 47.5001L39.0492 46.6501H45.5242L45.9492 47.5001C46.1759 47.9432 46.5669 48.2802 47.0387 48.439C47.5104 48.5978 48.0256 48.5659 48.4742 48.3501C48.6973 48.2419 48.8966 48.0902 49.0604 47.9039C49.2241 47.7176 49.349 47.5005 49.4277 47.2653C49.5064 47.0301 49.5374 46.7816 49.5187 46.5343C49.5001 46.2869 49.4322 46.0458 49.3192 45.8251ZM40.9492 42.9001L42.3192 40.1751L43.6942 42.9001H40.9492Z" fill="#EB1C79"></path></svg>